{"title":"Taps 1981 DVDRip x264-PsiX","uid":8972974,"size":1889863746,"categoryP":"video","categoryS":"movies","magnet":"?xt=urn:btih:c327fe092213ede5cc263f1d1b8c0f9102c602b4&amp;dn=Taps+1981+DVDRip+x264-PsiX&amp;tr=udp%3A%2F%2Ftracker.openbittorrent.com%3A80&amp;tr=udp%3A%2F%2Fopen.demonii.com%3A1337&amp;tr=udp%3A%2F%2Ftracker.coppersurfer.tk%3A6969&amp;tr=udp%3A%2F%2Fexodus.desync.com%3A6969","seeders":0,"leechers":1,"uploader":"sakhslitsa","files":4,"time":1380328084,"description":"Military cadets take extreme measures to insure the future\nof their academy when its existence is threatened by local\ncondo developers....\n\n\n\nDirected by ................Harold Becker\nProduced by .................Howard B. Jaffe, Stanley R. Jaffe\nWritten by .........................Robert Mark Kamen, James Lineberger,\nDarryl Ponicsan\nStarring ..................George C. Scott, Timothy Hutton\nMusic by................Maurice Jarre\nDistributed by ...................20th Century Fox\nRelease date(s) .....................December 18, 1981\nRunning time .....................126 minutes\nCountry ...................United States\nLanguage ...................English\n\n\n\n\n\n MediaInfo\n\nFormat : Matroska\nFormat version : Version 2\nFile size : 1.73 GiB\nDuration : 2h 1mn\nOverall bit rate : 2 050 Kbps\nEncoded date : UTC 2013-09-19 20:47:05\nWriting application : mkvmerge v6.2.0 ('Promised Land') built on Apr 28 2013 12:22:01\nWriting library : libebml v1.3.0 + libmatroska v1.4.0\nVideo\nID : 1\nFormat : AVC\nFormat/Info : Advanced Video Codec\nFormat profile : &lt;a class=&quot;__cf_email__&quot; href=&quot;/cdn-cgi/l/email-protection&quot; data-cfemail=&quot;e0a8898788a0acd4ced1&quot;&gt;[email&amp;#160;protected]&lt;/a&gt;&lt;script cf-hash='f9e31' type=&quot;text/javascript&quot;&gt;\n/* &lt;![CDATA[ */!function(){try{var t=&quot;currentScript&quot;in document?document.currentScript:function(){for(var t=document.getElementsByTagName(&quot;script&quot;),e=t.length;e--;)if(t[e].getAttribute(&quot;cf-hash&quot;))return t[e]}();if(t&amp;&amp;t.previousSibling){var e,r,n,i,c=t.previousSibling,a=c.getAttribute(&quot;data-cfemail&quot;);if(a){for(e=&quot;&quot;,r=parseInt(a.substr(0,2),16),n=2;a.length-n;n+=2)i=parseInt(a.substr(n,2),16)^r,e+=String.fromCharCode(i);e=document.createTextNode(e),c.parentNode.replaceChild(e,c)}}}catch(u){}}();/* ]]&gt; */&lt;/script&gt;\nFormat settings, CABAC : Yes\nFormat settings, ReFrames : 9 frames\nCodec ID : V_MPEG4/ISO/AVC\nDuration : 2h 1mn\nBit rate : 1 600 Kbps\nWidth : 720 pixels\nHeight : 384 pixels\nDisplay aspect ratio : 1.85:1\nFrame rate mode : Constant\nFrame rate : 25.000 fps\nColor space : YUV\nChroma subsampling : 4:2:0\nBit depth : 8 bits\nScan type : Progressive\nBits/(Pixel*Frame) : 0.231\nStream size : 1.32 GiB (76%)\nWriting library : x264 core 133 r2334 a3ac64b\nLanguage : English\nDefault : Yes\nForced : No\nAudio\nID : 2\nFormat : AC-3\nFormat/Info : Audio Coding 3\nMode extension : CM (complete main)\nFormat settings, Endianness : Big\nCodec ID : A_AC3\nDuration : 2h 1mn\nBit rate mode : Constant\nBit rate : 448 Kbps\nChannel(s) : 4 channels\nChannel positions : Front: L C R, Side: C\nSampling rate : 48.0 KHz\nBit depth : 16 bits\nCompression mode : Lossy\nStream size : 388 MiB (22%)\nDefault : Yes\nForced : No\nMenu\n00:00:00.000 : en:Chapter 01\n00:01:35.000 : en:Chapter 02\n00:06:25.520 : en:Chapter 03\n00:08:56.400 : en:Chapter 04\n00:13:01.240 : en:Chapter 05\n00:17:03.760 : en:Chapter 06\n00:24:20.560 : en:Chapter 07\n00:30:44.280 : en:Chapter 08\n00:31:54.320 : en:Chapter 09\n00:36:58.480 : en:Chapter 10\n00:40:56.640 : en:Chapter 11\n00:44:29.080 : en:Chapter 12\n00:46:51.280 : en:Chapter 13\n00:50:14.560 : en:Chapter 14\n00:56:25.360 : en:Chapter 15\n00:59:23.920 : en:Chapter 16\n01:03:19.120 : en:Chapter 17\n01:04:47.400 : en:Chapter 18\n01:08:10.720 : en:Chapter 19\n01:15:19.400 : en:Chapter 20\n01:19:01.360 : en:Chapter 21\n01:23:34.280 : en:Chapter 22\n01:25:33.960 : en:Chapter 23\n01:29:15.440 : en:Chapter 24\n01:31:50.600 : en:Chapter 25\n01:34:40.960 : en:Chapter 26\n01:40:13.160 : en:Chapter 27\n01:43:00.360 : en:Chapter 28\n01:44:09.880 : en:Chapter 29\n01:51:48.360 : en:Chapter 30\n01:55:33.000 : en:Chapter 31\n01:58:42.440 : en:Chapter 32\n02:01:09.960 : en:Chapter 33\n\n\n\nEncoded............ PsiX\nSource.............DVD9\n\nGreetz To: tomcat-12\n\nSample..............No\nSubs ............Yes ...idx....\n\nHrvatski\nEnglish\nGreek\nPolish\nRussian\nSlovenian\nUkrainian\nRussian\n","torrent":{"xt":"urn:btih:c327fe092213ede5cc263f1d1b8c0f9102c602b4","amp;dn":"Taps+1981+DVDRip+x264-PsiX","amp;tr":["udp%3A%2F%2Ftracker.openbittorrent.com%3A80","udp%3A%2F%2Fopen.demonii.com%3A1337","udp%3A%2F%2Ftracker.coppersurfer.tk%3A6969","udp%3A%2F%2Fexodus.desync.com%3A6969"],"infoHash":"c327fe092213ede5cc263f1d1b8c0f9102c602b4","infoHashBuffer":{"type":"Buffer","data":[195,39,254,9,34,19,237,229,204,38,63,29,27,140,15,145,2,198,2,180]},"announce":[],"urlList":[]}}